<svg width="1512" height="895" viewBox="0 0 1512 895" fill="none" xmlns="http://www.w3.org/2000/svg">
<rect width="1512" height="895" fill="#1E1E1E"/>
<g clip-path="url(#clip0_0_1)">
<rect width="1512" height="895" fill="white"/>
<path d="M1034.59 161.31C904.482 180.63 815.985 28.4865 788 -50L1617 -44.7173V1039H1524.41C1237.71 981.645 1285.98 752.977 1345.94 645.813C1380.97 570.597 1444.29 389.373 1417.43 266.21C1383.84 112.256 1197.22 137.16 1034.59 161.31Z" fill="#086AD9"/>
<path d="M490.804 793.392C632.839 773.77 729.449 928.288 760 1008L-145 1002.63L-145 -98H-43.9208C269.058 -39.7491 216.372 192.488 150.906 301.325C112.674 377.715 43.5416 561.768 72.8703 686.854C109.531 843.211 313.261 817.918 490.804 793.392Z" fill="#043873"/>
</g>
<defs>
<clipPath id="clip0_0_1">
<rect width="1512" height="895" fill="white"/>
</clipPath>
</defs>
</svg>
